<?xml version="1.0" encoding="UTF-8" standalone="no"?>
<svg
   width="1000"
   height="1000"
   viewBox="0 0 1000 1000"
   version="1.1"
   id="svg20"
   sodipodi:docname="Logo_v3_website_20260623.svg"
   inkscape:version="1.4.3 (0d15f750, 2025-12-25)"
   xmlns:inkscape="http://www.inkscape.org/namespaces/inkscape"
   xmlns:sodipodi="http://sodipodi.sourceforge.net/DTD/sodipodi-0.dtd"
   xmlns:xlink="http://www.w3.org/1999/xlink"
   xmlns="http://www.w3.org/2000/svg"
   xmlns:svg="http://www.w3.org/2000/svg">
  <defs
     id="defs20">
    <linearGradient
       id="linearGradient3"
       inkscape:collect="always">
      <stop
         style="stop-color:#1a3d2b;stop-opacity:1;"
         offset="0"
         id="stop3" />
      <stop
         style="stop-color:#ffffff;stop-opacity:1;"
         offset="1"
         id="stop4" />
    </linearGradient>
    <linearGradient
       id="swatch19"
       inkscape:swatch="solid">
      <stop
         style="stop-color:#ffd42a;stop-opacity:1;"
         offset="0"
         id="stop19" />
    </linearGradient>
    <linearGradient
       id="linearGradient8"
       inkscape:swatch="gradient">
      <stop
         style="stop-color:#ffd42a;stop-opacity:1;"
         offset="0"
         id="stop8" />
      <stop
         style="stop-color:#ffd42a;stop-opacity:0;"
         offset="1"
         id="stop9" />
    </linearGradient>
    <rect
       x="545.84442"
       y="283.41922"
       width="778.87799"
       height="159.55453"
       id="rect2" />
    <linearGradient
       inkscape:collect="always"
       xlink:href="#linearGradient3"
       id="linearGradient4"
       x1="992.21143"
       y1="1332.8649"
       x2="992.21143"
       y2="730.19299"
       gradientUnits="userSpaceOnUse"
       gradientTransform="translate(-485.13483,-426.19519)" />
    <rect
       x="545.84442"
       y="283.41922"
       width="778.87799"
       height="159.55453"
       id="rect2-8" />
  </defs>
  <sodipodi:namedview
     id="namedview20"
     pagecolor="#ffffff"
     bordercolor="#000000"
     borderopacity="0.25"
     inkscape:showpageshadow="2"
     inkscape:pageopacity="0.0"
     inkscape:pagecheckerboard="0"
     inkscape:deskcolor="#d1d1d1"
     inkscape:zoom="0.33156718"
     inkscape:cx="637.87978"
     inkscape:cy="242.78639"
     inkscape:window-width="1352"
     inkscape:window-height="820"
     inkscape:window-x="0"
     inkscape:window-y="58"
     inkscape:window-maximized="0"
     inkscape:current-layer="svg20" />
  <rect
     style="display:inline;fill:#1a3d2b;fill-opacity:1;stroke:none;stroke-width:0.678312;stroke-opacity:1"
     id="rect4"
     width="1000"
     height="1000"
     x="0"
     y="0" />
  <rect
     style="fill:url(#linearGradient4);fill-opacity:1;stroke:none;stroke-opacity:1"
     id="rect3"
     width="197.44769"
     height="827.39984"
     x="409.96136"
     y="81.52742" />
  <path
     id="path1-5"
     style="fill:#d4960a;fill-opacity:1;stroke:#000000;stroke-opacity:1"
     d="m 332.30462,48.162228 c -12.5009,1.26217 -24.7371,3.16319 -37,5 -24.1346,2.61782 -48.4335,4.83913 -74,4 -8.9791,-4.60268 -20.8183,-2.30055 -31,-4 -11.3096,1.44539 -11.4574,16.83891 -2,21 9.5971,5.75518 21.9033,6.23748 29,16 12.0317,6.533 26.7943,6.47284 38,15.000002 21.1736,6.61438 34.8298,31.3774 56,38 18.8407,2.16092 27.8097,-18.70444 28,-34 -2.8709,-11.685042 11.2252,-3.76506 17,-2 5.03195,1.86537 11.7194,4.08272 19.35208,6.54714 -1.67855,5.26057 -0.52843,1.28557 -2.35208,7.45286 -5.318,19.92546 -7.2816,41.24037 -13,61 -5.7928,22.8097 -11.9099,45.48503 -16,69 -5.8122,26.36375 -9.0358,53.79973 -8,83 1.9401,13.41535 0.1654,28.36939 4,41 -15.0733,12.87059 -33.8373,22.99428 -49,38 -26.2146,22.03172 -46.145,49.18708 -68,74 -9.1842,1.21986 -4.6404,-14.7656 -8,-21 -4.8932,-20.04423 -9.9096,-40.03744 -15,-60 -6.0229,-23.26664 -10.4763,-47.18342 -20,-69 0.037,-6.35859 -12.6474,-18.50414 0,-19 13.8375,-2.47399 32.5257,-15.21647 27,-32 -13.0985,-19.45852 -38.5928,-28.00549 -52,-49 -12.3895,-12.3688 -13.4351,-30.64566 -29,-40 -7.5664,-8.40253 -10.0327,-25.69373 -25,-24 -7.475297,-1.05289 -11.231797,6.85681 -9.999997,13 3.33,17.887 12.909497,33.1854 13.999997,52 4.1598,19.04818 5.8113,39.13533 8,59 -0.2743,23.24186 7.1573,43.29187 13,64 6.0074,20.55901 9.0479,42.34697 10,65 2.9054,28.07268 1.7957,57.80847 2,87 -2.8341,18.43554 -1.8181,38.46588 -2,58 4.421,14.35622 3.5449,32.15882 19,41.00202 8.0064,10.6985 22.9203,4.721 34,8 14.6913,1.4974 24.6161,-8.5125 36,-15 27.0165,-18.9603 53.3358,-39.60565 81,-57.00202 4.7469,-3.0323 14.1691,-15.29934 17,-6 -5.1509,9.38521 -7.0086,20.13451 -11,30 -12.5272,10.71708 -23.3025,24.42712 -24,41.00202 8.3557,8.8861 8.6692,21.1035 17,30 2.8752,7.604 9.8439,13.5124 13,21 -20.5397,9.7206 -43.1647,14.4071 -65,21 -16.1218,1.8459 -18.8798,19.5736 -26,31 -12.621,4.6491 -29.4656,9.6191 -30,26 -5.8266,16.6576 -12.7482,32.8617 -15,51 -1.6976,22.1253 -3.776,44.0928 -6,66 -2.1938,15.7244 -6.123,30.73009 -7,46.99999 3.0241,14.0954 5.8712,31.5381 22,36 15.1077,6.0161 33.8301,3.3055 47,14 9.5073,2.5665 21.0544,18.9985 30,8 4.4414,-9.1414 -15.5866,-11.1552 -12,-19 11.2917,-1.8619 24.981,13.3992 36,3 7.6166,-10e-5 17.111,-5.3792 10,-13 6.334,-2.5888 8.9451,-13.1609 -1,-13 -13.0073,-1.3729 -24.3907,-6.6663 -37,-9 -11.2225,0.2846 -17.6057,-11.1137 -30,-8 -9.7244,-1.5272 -20.4112,-0.7312 -29,-5 2.7074,-8.3266 2.9163,-19.02169 9,-24.99999 7.3251,8.6699 16.4116,15.66589 29,14.99999 10.5598,4.6331 26.4736,12.4824 37,2 4.4537,-9.86859 -17.8671,-8.04239 -8,-14.99999 9.4285,-1.4565 16.7532,1.5677 26,0 5.215,1.9296 10.38066,1.5537 15.28516,0.1347 2.4523,-0.7095 4.84016,-1.6786 7.13477,-2.7539 0.53849,-0.2524 1.0716,-0.5096 1.5996,-0.7714 -0.1199,-3.5285 -0.16953,-8.3468 -1.01953,-8.6094 -1.3904,-12.9507 -16.5951,-2.9205 -25,-7 -12.002,-0.7189 -23.1544,-3.4891 -34,-7 -8.778,1.2574 -22.4906,0.1804 -15,-11 7.0031,-22.6417 11.7101,-46.2345 16,-70 4.6951,-9.6539 19.4163,-6.1531 28,-11 20.1619,-4.8114 39.251,-12.2018 59,-18 7.2359,-0.4668 5.1703,12.661 6,19 2.296,8.6433 -3.7977,11.6241 -11,9 -12.1654,-4.9471 -29.7643,3.9822 -25,18 2.9774,6.6102 -6.4147,10.3631 -5,18 2.0517,7.4049 -0.7669,11.8632 -6,17 -0.2863,12.1269 20.8337,12.6898 18,27 -0.4661,0.6407 -0.74066,1.4241 -0.88476,2.2968 -0.1441,0.8729 -0.15782,1.8332 -0.10352,2.834 0.054,1.0008 0.17764,2.0418 0.30664,3.0664 0.1289,1.0247 0.26385,2.0342 0.34375,2.9786 0.08,0.9444 0.10442,1.8239 0.0117,2.5839 -0.054,0.4415 0.16721,4.6881 0.28711,8.2618 0.26444,0.6186 5.7664,17.62019 14.0391,23.97599 17.9025,20.2945 44.08705,16.4007 69.83985,14.5 1.00432,-0.2971 2.00518,-0.62 3,-0.9687 3.58502,-1.4158 7.84914,-3.1266 11.375,-5.2266 0.90859,-0.5411 1.76862,-1.1086 2.55468,-1.7031 4.4299,-3.3506 6.83193,-7.4749 8.73633,-10.4356 3.8089,-5.92139 4.36922,-12.39239 5.07422,-17.19719 1.4855,-10.1241 0.77558,-20.3772 -1.26562,-28.7715 -2.7098,-11.1434 -7.98471,-22.9759 -13.62891,-32.4258 -4.2373,-9.024 -11.86144,-22.8241 -11.89844,-31.4629 l -0.16211,-38.1719 c -0.037,-8.6389 -0.008,-17.277 -0.0176,-25.916 -0.005,-8.639 2.7217,-19.166 4.5371,-29.0625 3.0723,-16.7483 0.89258,-36.4427 0.89258,-53.7207 -0.002,-17.278 -1.12215,-30.6478 -1.81445,-50.5761 -0.6611,-19.02755 -0.43913,-32.04044 -1.33203,-49.94736 -0.8595,-17.23719 -2.23513,-32.6692 -2.20313,-49.94726 0.0511,-28.38845 17.79501,-45.7252 29.22071,-65.7461 12.7102,-31.98923 7.75521,-70.15327 9.75781,-124.96484 1.7033,-46.62712 2.17467,-147.8889 2.66797,-154.7832 l 0.73437,-10.27149 c -0.82272,-0.68725 1.08925,-0.37702 4.40473,-0.30233 7.4434,0.16769 19.51407,0.0884 32.78796,0.18411 19.34938,-0.21787 34.05291,-0.30839 44.03011,-0.79501 2.7786,-0.13552 5.3854,-0.29279 4.7225,0.26089 l 0.7344,10.27148 c 0.4934,6.8943 0.9647,108.15413 2.668,154.78125 2.0026,54.81157 -2.9525,92.97756 9.7578,124.9668 11.4257,20.02089 29.1696,37.35763 29.2207,65.7461 0.032,17.27804 -1.3436,32.71006 -2.2031,49.94726 -0.8929,17.9069 -0.671,30.91988 -1.3321,49.94726 -0.6923,19.92844 -1.8123,33.29834 -1.8144,50.57624 0,17.2781 -2.1778,36.9725 0.8945,53.7207 1.8154,9.8966 4.5401,20.4215 4.5352,29.0605 -0.01,8.639 0.021,17.2791 -0.016,25.918 l -0.164,38.1699 c -0.037,8.6388 -7.6611,22.4409 -11.8985,31.4649 -5.6442,9.4499 -10.9171,21.2823 -13.6269,32.4257 -2.0412,8.3943 -2.7531,18.6474 -1.2676,28.7715 0.705,4.8048 1.2653,11.2759 5.0742,17.19729 1.8577,2.8881 4.1907,6.8832 8.416,10.1875 5.4283,3.091 11.3003,5.4325 17.2539,6.875 25.7528,1.9007 51.7186,9.025 69.6211,-11.2695 8.2727,-6.3558 13.9095,-23.71489 14.039,-23.97899 0.1199,-3.5737 0.3411,-7.8202 0.2871,-8.2617 -0.093,-0.76 -0.068,-1.6396 0.012,-2.584 0.08,-0.9444 0.2149,-1.9538 0.3438,-2.9785 0.129,-1.0246 0.2526,-2.0617 0.3066,-3.0625 0.054,-1.0008 0.041,-1.9651 -0.1035,-2.8379 -0.1441,-0.8728 -0.4187,-1.6561 -0.8848,-2.2968 -2.8337,-14.3102 18.2863,-14.8731 18,-27 -5.2331,-5.1368 -8.0517,-9.5952 -6,-17 1.4147,-7.6369 -7.9774,-11.3879 -5,-17.9981 4.7643,-14.0178 -12.8346,-22.949 -25,-18.0019 -7.2023,2.6241 -13.296,-0.3567 -11,-9 0.8297,-6.339 -1.2359,-19.4667 6,-19 19.749,5.7983 38.8381,13.1886 59,18 8.5837,4.8469 23.3049,1.3479 28,11.0019 4.2899,23.7654 8.9968,47.3564 16,69.9981 7.4906,11.1804 -6.222,12.2574 -15,11 -10.8456,3.5109 -21.998,6.2811 -34,7 -8.4049,4.0795 -23.6096,-5.9507 -25,7 -0.85,0.2626 -0.8996,5.0808 -1.0195,8.6093 0.528,0.2618 1.0611,0.5211 1.5996,0.7735 2.2946,1.0753 4.6825,2.0463 7.1348,2.7558 4.9045,1.419 10.0701,1.791 15.2851,-0.1386 9.2468,1.5677 16.5715,-1.4565 26,0 9.8671,6.9576 -12.4537,5.1314 -8,14.99999 10.5264,10.4824 26.4401,2.6331 37,-2 12.5884,0.6659 21.6749,-6.33009 29,-14.99999 6.0837,5.9783 6.2926,16.67339 9,24.99999 -8.5888,4.2688 -19.2756,3.4728 -29,5 -12.3943,-3.1137 -18.7775,8.2846 -30,8 -12.6093,2.3337 -23.9927,7.6271 -37,9 -9.9451,-0.1609 -7.334,10.4112 -1,13 -7.111,7.6208 2.3834,12.9999 10,13 11.019,10.3992 24.7083,-4.8619 36,-3 3.5866,7.8448 -16.4414,9.8586 -12,19 8.9456,10.9985 20.4927,-5.4335 30,-8 13.1699,-10.6945 31.8923,-7.9839 47,-14 16.1288,-4.4619 18.9759,-21.9046 22,-36 -0.877,-16.2699 -4.8062,-31.27559 -7,-46.99999 -2.224,-21.9072 -4.3024,-43.8729 -6,-65.9981 -2.2518,-18.1383 -9.1734,-34.3443 -15,-51.0019 -0.5344,-16.3809 -17.379,-21.3508 -30,-26 -7.1202,-11.4264 -9.8781,-29.154 -26,-31 -21.8353,-6.5928 -44.4603,-11.2793 -65,-21 3.1561,-7.4876 10.1248,-13.396 13,-21 8.3308,-8.8964 8.6443,-21.1138 17,-30 -0.6975,-16.5749 -11.4728,-30.2829 -24,-41.00008 -3.9914,-9.86549 -5.8491,-20.61479 -11,-30 2.8309,-9.29934 12.2531,2.9677 17,6 27.6642,17.39637 53.9834,38.03988 81,57.00008 11.3839,6.4875 21.3087,16.4975 36,15 11.0797,-3.279 25.9936,2.6986 34,-8 15.4551,-8.8431 14.579,-26.6438 19,-41.00008 -0.1819,-19.53412 0.8341,-39.56446 -2,-58 0.2043,-29.19153 -0.9054,-58.92732 2,-87 0.9521,-22.65303 3.9925,-44.44099 10,-65 5.8427,-20.70813 13.2743,-40.75814 13,-64 2.1887,-19.86467 3.8402,-39.95182 8,-59 1.0905,-18.8146 10.67005,-34.113 14.00005,-52 1.2319,-6.14319 -2.5247,-14.05289 -10.00005,-13 -14.9673,-1.69373 -17.4336,15.59747 -25,24 -15.565,9.35434 -16.6105,27.6312 -29,40 -13.4072,20.99451 -38.9015,29.54148 -52,49 -5.5257,16.78353 13.1625,29.52601 27,32 12.6474,0.49586 -0.037,12.64141 0,19 -9.5237,21.81658 -13.9771,45.73336 -20,69 -5.0904,19.96256 -10.1068,39.95577 -15,60 -3.3596,6.2344 1.1842,22.21986 -8,21 -21.855,-24.81292 -41.7854,-51.96828 -68,-74 -15.1627,-15.00572 -33.9267,-25.12941 -49,-38 3.8346,-12.63061 2.0599,-27.58465 4,-41 1.0358,-29.20027 -2.1878,-56.63625 -8,-83 -4.0901,-23.51497 -10.2072,-46.1903 -16,-69 -5.7184,-19.75963 -7.6819,-41.07454 -13,-61 -2.1509,-7.4931 -0.5619,-2.29496 -2.2395,-7.95887 4.1114,-1.46087 14.4725,-4.42608 19.2395,-6.04113 5.8764,-2.15421 19.8709,-9.685042 17,2 0.1903,15.29556 9.1593,36.16092 28,34 21.1702,-6.6226 34.8264,-31.38562 56,-38 11.2058,-8.527162 25.9683,-8.467002 38,-15.000002 7.0967,-9.76252 19.4029,-10.24482 29,-16 9.4574,-4.16109 9.3096,-19.55461 -2,-21 -10.1817,1.69945 -22.0209,-0.60268 -31,4 -25.5665,0.83913 -49.8654,-1.38218 -74,-4 -12.2629,-1.83681 -24.4991,-3.73783 -37,-5 -15.3365,1.18755 -30.5809,2.59735 -45,6 -20.5347,2.28794 -42.6104,4.01418 -64.0214,2.65625 -22.0431,0.0799 -37.8864,-0.56726 -58.30078,-0.33203 -23.25631,-0.0915 -37.71836,-0.30688 -60.56446,-0.91016 -21.0851,1.23834 -42.77817,-0.46979 -62.98047,-2.7207 -14.419,-3.40265 -29.6635,-4.81245 -45,-6 z"
     sodipodi:nodetypes="cccccccccccccccccccccccccccccccccccccccccccccccccccccccccccccccssccccccccccccccsssssccccsssssccccscsscccccscscccccsscsccccsssccccsssscccccccccccccccsscccccccccccccccccccccccccccccccccccccccccccccccccccccccccccccccccccccc" />
  <path
     style="fill:#d4960a;fill-opacity:1;stroke:#000000;stroke-opacity:1"
     d="m 375.38639,113.62874 c 0,0 26.87428,7.10333 40.41297,9.46981 13.82138,2.41588 41.5758,4.81843 41.5758,4.81843"
     id="path1"
     sodipodi:nodetypes="csc" />
  <path
     style="fill:#d4960a;fill-opacity:1;stroke:#000000;stroke-opacity:1"
     d="m 626.49427,120.3317 c 0,0 -3.6041,-14.17694 -6.0941,-21.771272 -1.7346,-5.29057 -4.7282,-12.22764 -6.3493,-17.5541 -1.743,-5.72687 -4.5194,-11.59355 -7.8434,-16.06013 -3.9839,-5.35338 -11.3501,-6.9509 -11.3501,-6.9509"
     id="path2"
     sodipodi:nodetypes="csssc" />
</svg>
